<?xml version="1.0" encoding="UTF-8"?>
<svg version="1.1" xmlns="http://www.w3.org/2000/svg" width="77" height="66">
<path d="M0 0 C25.41 0 50.82 0 77 0 C77 21.78 77 43.56 77 66 C51.59 66 26.18 66 0 66 C0 44.22 0 22.44 0 0 Z " fill="#090909" transform="translate(0,0)"/>
<path d="M0 0 C4.24014759 3.48266743 7.79287633 7.45072081 9.90234375 12.5625 C9.90234375 13.8825 9.90234375 15.2025 9.90234375 16.5625 C10.89234375 16.5625 11.88234375 16.5625 12.90234375 16.5625 C12.62390625 17.9546875 12.62390625 17.9546875 12.33984375 19.375 C11.66110494 22.57593771 11.66110494 22.57593771 12.90234375 25.5625 C11.91234375 25.5625 10.92234375 25.5625 9.90234375 25.5625 C9.81984375 26.42875 9.73734375 27.295 9.65234375 28.1875 C8.13801967 35.00195837 3.51574769 39.68796755 -2.09765625 43.5625 C-8.76729818 46.92601994 -17.77659121 46.87283707 -24.8671875 44.72265625 C-30.29163685 41.97808818 -34.27322498 37.94720709 -37.09765625 32.5625 C-37.78927787 30.11877029 -37.99100811 28.12205528 -38.09765625 25.5625 C-39.41765625 25.5625 -40.73765625 25.5625 -42.09765625 25.5625 C-42.09765625 24.9025 -42.09765625 24.2425 -42.09765625 23.5625 C-41.43765625 23.5625 -40.77765625 23.5625 -40.09765625 23.5625 C-40.67350057 21.17685923 -41.3199322 18.89567216 -42.09765625 16.5625 C-41.10765625 16.2325 -40.11765625 15.9025 -39.09765625 15.5625 C-38.10637138 13.69810112 -38.10637138 13.69810112 -37.34765625 11.4375 C-34.69388638 5.10074153 -30.79343169 1.26799058 -25.03515625 -2.375 C-16.91624992 -5.28900927 -7.21077871 -4.72661845 0 0 Z " fill="#0A090F" transform="translate(50.09765625,9.4375)"/>
<path d="M0 0 C4.24014759 3.48266743 7.79287633 7.45072081 9.90234375 12.5625 C9.90234375 13.8825 9.90234375 15.2025 9.90234375 16.5625 C10.89234375 16.5625 11.88234375 16.5625 12.90234375 16.5625 C12.62390625 17.9546875 12.62390625 17.9546875 12.33984375 19.375 C11.66110494 22.57593771 11.66110494 22.57593771 12.90234375 25.5625 C11.91234375 25.5625 10.92234375 25.5625 9.90234375 25.5625 C9.81984375 26.42875 9.73734375 27.295 9.65234375 28.1875 C8.13801967 35.00195837 3.51574769 39.68796755 -2.09765625 43.5625 C-8.76729818 46.92601994 -17.77659121 46.87283707 -24.8671875 44.72265625 C-30.29163685 41.97808818 -34.27322498 37.94720709 -37.09765625 32.5625 C-37.78927787 30.11877029 -37.99100811 28.12205528 -38.09765625 25.5625 C-39.41765625 25.5625 -40.73765625 25.5625 -42.09765625 25.5625 C-42.09765625 24.9025 -42.09765625 24.2425 -42.09765625 23.5625 C-41.43765625 23.5625 -40.77765625 23.5625 -40.09765625 23.5625 C-40.67350057 21.17685923 -41.3199322 18.89567216 -42.09765625 16.5625 C-41.10765625 16.2325 -40.11765625 15.9025 -39.09765625 15.5625 C-38.10637138 13.69810112 -38.10637138 13.69810112 -37.34765625 11.4375 C-34.69388638 5.10074153 -30.79343169 1.26799058 -25.03515625 -2.375 C-16.91624992 -5.28900927 -7.21077871 -4.72661845 0 0 Z M-31.58984375 4.80859375 C-34.36732304 8.0393922 -37.09765625 12.19432051 -37.09765625 16.5625 C-36.12828125 16.5625 -35.15890625 16.5625 -34.16015625 16.5625 C-32.80598958 16.5625 -31.45182292 16.5625 -30.09765625 16.5625 C-30.42765625 19.5325 -30.75765625 22.5025 -31.09765625 25.5625 C-33.07765625 25.5625 -35.05765625 25.5625 -37.09765625 25.5625 C-35.7877042 32.46951992 -33.84557755 36.95614739 -27.96875 41.04296875 C-21.45471769 44.77572884 -15.51100598 45.63912755 -8.09765625 44.5625 C-1.4598337 42.74190472 3.13266587 38.19091101 6.90234375 32.5625 C7.91324639 30.17676977 8.4214982 28.12700962 8.90234375 25.5625 C6.59234375 25.5625 4.28234375 25.5625 1.90234375 25.5625 C1.90234375 23.5825 1.90234375 21.6025 1.90234375 19.5625 C0.58234375 19.8925 -0.73765625 20.2225 -2.09765625 20.5625 C-1.85015625 21.614375 -1.60265625 22.66625 -1.34765625 23.75 C-1.09765625 27.5625 -1.09765625 27.5625 -2.78515625 30.375 C-6.71599859 34.09336437 -9.45687747 34.81585188 -14.84765625 34.6875 C-16.32492188 34.66042969 -16.32492188 34.66042969 -17.83203125 34.6328125 C-18.5796875 34.60960937 -19.32734375 34.58640625 -20.09765625 34.5625 C-18.61265625 34.0675 -18.61265625 34.0675 -17.09765625 33.5625 C-17.09765625 31.5825 -17.09765625 29.6025 -17.09765625 27.5625 C-18.41765625 27.5625 -19.73765625 27.5625 -21.09765625 27.5625 C-21.09765625 25.9125 -21.09765625 24.2625 -21.09765625 22.5625 C-20.43765625 22.5625 -19.77765625 22.5625 -19.09765625 22.5625 C-18.76765625 23.8825 -18.43765625 25.2025 -18.09765625 26.5625 C-16.77765625 26.5625 -15.45765625 26.5625 -14.09765625 26.5625 C-13.56963861 20.20172041 -13.56963861 20.20172041 -16.09765625 14.5 C-16.75765625 13.860625 -17.41765625 13.22125 -18.09765625 12.5625 C-18.09765625 13.5525 -18.09765625 14.5425 -18.09765625 15.5625 C-18.67515625 15.315 -19.25265625 15.0675 -19.84765625 14.8125 C-22.22584039 14.30030393 -22.22584039 14.30030393 -24.28515625 16.0625 C-26.56720313 19.21015087 -26.80301564 21.73217201 -27.09765625 25.5625 C-28.09765625 24.5625 -28.09765625 24.5625 -28.34765625 21.375 C-28.07287731 17.18462119 -27.41803548 15.04306885 -25.09765625 11.5625 C-20.68694135 7.86980846 -16.60556118 6.70206654 -11.09765625 5.5625 C-11.45730469 6.46742187 -11.45730469 6.46742187 -11.82421875 7.390625 C-12.12070312 8.18984375 -12.4171875 8.9890625 -12.72265625 9.8125 C-13.02429688 10.60140625 -13.3259375 11.3903125 -13.63671875 12.203125 C-14.19517761 15.06167715 -13.6345637 16.15209839 -12.09765625 18.5625 C-11.43765625 18.5625 -10.77765625 18.5625 -10.09765625 18.5625 C-9.76765625 16.9125 -9.43765625 15.2625 -9.09765625 13.5625 C-8.10765625 13.2325 -7.11765625 12.9025 -6.09765625 12.5625 C-6.09765625 11.9025 -6.09765625 11.2425 -6.09765625 10.5625 C-3.10432886 11.5602758 -2.1499931 12.3147025 -0.09765625 14.5625 C-0.09765625 13.5725 -0.09765625 12.5825 -0.09765625 11.5625 C0.49015625 12.8 0.49015625 12.8 1.08984375 14.0625 C1.68796875 14.8875 2.28609375 15.7125 2.90234375 16.5625 C5.52928797 16.98030879 5.52928797 16.98030879 7.90234375 16.5625 C7.60334189 10.58246273 4.98263804 6.7316896 0.90234375 2.5625 C-9.28998867 -5.05446791 -22.47900338 -3.6454186 -31.58984375 4.80859375 Z " fill="#7E5AA9" transform="translate(50.09765625,9.4375)"/>
<path d="M0 0 C4.24014759 3.48266743 7.79287633 7.45072081 9.90234375 12.5625 C9.90234375 13.8825 9.90234375 15.2025 9.90234375 16.5625 C10.89234375 16.5625 11.88234375 16.5625 12.90234375 16.5625 C12.62390625 17.9546875 12.62390625 17.9546875 12.33984375 19.375 C11.66110494 22.57593771 11.66110494 22.57593771 12.90234375 25.5625 C11.91234375 25.5625 10.92234375 25.5625 9.90234375 25.5625 C9.81984375 26.42875 9.73734375 27.295 9.65234375 28.1875 C8.13801967 35.00195837 3.51574769 39.68796755 -2.09765625 43.5625 C-8.76729818 46.92601994 -17.77659121 46.87283707 -24.8671875 44.72265625 C-30.29163685 41.97808818 -34.27322498 37.94720709 -37.09765625 32.5625 C-37.78927787 30.11877029 -37.99100811 28.12205528 -38.09765625 25.5625 C-39.41765625 25.5625 -40.73765625 25.5625 -42.09765625 25.5625 C-42.09765625 24.9025 -42.09765625 24.2425 -42.09765625 23.5625 C-41.43765625 23.5625 -40.77765625 23.5625 -40.09765625 23.5625 C-40.67350057 21.17685923 -41.3199322 18.89567216 -42.09765625 16.5625 C-41.10765625 16.2325 -40.11765625 15.9025 -39.09765625 15.5625 C-38.10637138 13.69810112 -38.10637138 13.69810112 -37.34765625 11.4375 C-34.69388638 5.10074153 -30.79343169 1.26799058 -25.03515625 -2.375 C-16.91624992 -5.28900927 -7.21077871 -4.72661845 0 0 Z M-31.58984375 4.80859375 C-34.36732304 8.0393922 -37.09765625 12.19432051 -37.09765625 16.5625 C-36.12828125 16.5625 -35.15890625 16.5625 -34.16015625 16.5625 C-32.80598958 16.5625 -31.45182292 16.5625 -30.09765625 16.5625 C-30.42765625 19.5325 -30.75765625 22.5025 -31.09765625 25.5625 C-33.07765625 25.5625 -35.05765625 25.5625 -37.09765625 25.5625 C-35.7877042 32.46951992 -33.84557755 36.95614739 -27.96875 41.04296875 C-21.45471769 44.77572884 -15.51100598 45.63912755 -8.09765625 44.5625 C-1.4598337 42.74190472 3.13266587 38.19091101 6.90234375 32.5625 C7.91324639 30.17676977 8.4214982 28.12700962 8.90234375 25.5625 C6.59234375 25.5625 4.28234375 25.5625 1.90234375 25.5625 C1.90234375 23.5825 1.90234375 21.6025 1.90234375 19.5625 C1.24234375 19.5625 0.58234375 19.5625 -0.09765625 19.5625 C-0.09765625 16.9225 -0.09765625 14.2825 -0.09765625 11.5625 C0.49015625 12.8 0.49015625 12.8 1.08984375 14.0625 C1.68796875 14.8875 2.28609375 15.7125 2.90234375 16.5625 C5.52928797 16.98030879 5.52928797 16.98030879 7.90234375 16.5625 C7.60334189 10.58246273 4.98263804 6.7316896 0.90234375 2.5625 C-9.28998867 -5.05446791 -22.47900338 -3.6454186 -31.58984375 4.80859375 Z " fill="#2E256D" transform="translate(50.09765625,9.4375)"/>
<path d="M0 0 C0 1.98 0 3.96 0 6 C2.31 6 4.62 6 7 6 C5.32539522 13.03334009 2.76494337 17.55894759 -3 22 C-9.00215223 25.64836704 -15.16290005 25.90580687 -22 25 C-28.58311177 23.00567722 -33.11212581 19.70009774 -36.94921875 14.00390625 C-38.32963147 11.37137195 -38.85209033 8.95819341 -39 6 C-36.3125 5.5 -36.3125 5.5 -33 6 C-31.734375 7.640625 -31.734375 7.640625 -30.5625 9.75 C-28.11603065 14.11648326 -25.83682946 16.49083422 -21 18 C-15.39090198 18.96234525 -11.24277988 18.5240544 -6.375 15.5 C-5.23423166 14.68838616 -4.10278649 13.86251458 -3 13 C-4.32 13.33 -5.64 13.66 -7 14 C-6.319375 13.154375 -5.63875 12.30875 -4.9375 11.4375 C-2.62242533 7.33010946 -2.92236526 5.49014476 -4 1 C-1 0 -1 0 0 0 Z " fill="#0A080B" transform="translate(52,29)"/>
<path d="M0 0 C-0.66 0 -1.32 0 -2 0 C-4.49582302 7.88154636 -3.35941222 13.18603264 -1 21 C-1 21.33 -1 21.66 -1 22 C-4.63 22 -8.26 22 -12 22 C-12 20.35 -12 18.7 -12 17 C-11.34 17 -10.68 17 -10 17 C-9.67 15.68 -9.34 14.36 -9 13 C-9 15.64 -9 18.28 -9 21 C-7.68 21 -6.36 21 -5 21 C-5.11458693 19.56163249 -5.24209116 18.12429034 -5.375 16.6875 C-5.44460937 15.88699219 -5.51421875 15.08648438 -5.5859375 14.26171875 C-5.89564426 11.72775559 -5.89564426 11.72775559 -8 9 C-12.41522109 10.26974972 -12.41522109 10.26974972 -16 13 C-16.67651207 15.19704511 -16.67651207 15.19704511 -17.125 17.625 C-17.29257812 18.44226563 -17.46015625 19.25953125 -17.6328125 20.1015625 C-17.75398438 20.72804688 -17.87515625 21.35453125 -18 22 C-20.49455917 18.25816125 -20.37606522 16.43756964 -20 12 C-18.25174499 7.30731549 -16.23344858 4.66891323 -12 2 C-4.09891808 -1.36630603 -4.09891808 -1.36630603 0 0 Z " fill="#4E34AB" transform="translate(41,15)"/>
<path d="M0 0 C1.57043101 0.01330874 3.14079971 0.03717648 4.7109375 0.0703125 C5.51273438 0.07933594 6.31453125 0.08835937 7.140625 0.09765625 C9.12252273 0.12125027 11.10426731 0.15712185 13.0859375 0.1953125 C13.0859375 0.8553125 13.0859375 1.5153125 13.0859375 2.1953125 C12.2403125 2.5253125 11.3946875 2.8553125 10.5234375 3.1953125 C4.96956856 6.42665443 1.09378877 10.74141376 -1.3515625 16.6953125 C-1.5371875 17.5203125 -1.7228125 18.3453125 -1.9140625 19.1953125 C-3.2340625 19.1953125 -4.5540625 19.1953125 -5.9140625 19.1953125 C-5.96786828 16.40339045 -6.00763919 13.6124984 -6.0390625 10.8203125 C-6.05582031 10.02625 -6.07257812 9.2321875 -6.08984375 8.4140625 C-6.10741723 6.34039235 -6.01741418 4.26648009 -5.9140625 2.1953125 C-3.9140625 0.1953125 -3.9140625 0.1953125 0 0 Z " fill="#020103" transform="translate(13.9140625,5.8046875)"/>
<path d="M0 0 C1.06671952 3.20015856 0.94845472 4.88544294 0.5625 8.1875 C0.46066406 9.08855469 0.35882813 9.98960938 0.25390625 10.91796875 C0.17011719 11.60503906 0.08632813 12.29210938 0 13 C-2.31 12.67 -4.62 12.34 -7 12 C-3.89413662 19.96419715 -0.33832105 25.55207803 7.625 29.27734375 C14.64392626 31.41303677 22.20710835 30.47014242 29 28 C26.12687189 31.14675936 24.05210644 31.9116937 19.7421875 32.2734375 C11.78916573 32.48230474 5.29644704 32.44202312 -1 27 C-5.53735184 22.39521406 -7.73037806 18.47092646 -8 12 C-9.32 12 -10.64 12 -12 12 C-12 11.34 -12 10.68 -12 10 C-11.34 10 -10.68 10 -10 10 C-10.57584432 7.61435923 -11.22227595 5.33317216 -12 3 C-11.21753906 2.95101563 -10.43507813 2.90203125 -9.62890625 2.8515625 C-8.61699219 2.77679687 -7.60507813 2.70203125 -6.5625 2.625 C-5.55316406 2.55539063 -4.54382813 2.48578125 -3.50390625 2.4140625 C-2.26447266 2.20910156 -2.26447266 2.20910156 -1 2 C-0.67 1.34 -0.34 0.68 0 0 Z " fill="#69447D" transform="translate(20,23)"/>
<path d="M0 0 C0 0.99 0 1.98 0 3 C2.31 3.33 4.62 3.66 7 4 C7 4.33 7 4.66 7 5 C6.43152344 5.02578125 5.86304687 5.0515625 5.27734375 5.078125 C-0.56316749 5.50714419 -4.07059394 6.88139617 -9 10 C-9.66 10 -10.32 10 -11 10 C-11.28875 10.763125 -11.5775 11.52625 -11.875 12.3125 C-13 15 -13 15 -15 18 C-18.125 18.1875 -18.125 18.1875 -21 18 C-19.77725864 11.47871273 -16.83607675 7.5015054 -12 3 C-7.84855758 0.28885393 -4.93049126 -0.35217795 0 0 Z " fill="#08060B" transform="translate(34,8)"/>
<path d="M0 0 C0.99 0 1.98 0 3 0 C3 0.99 3 1.98 3 3 C3.66 3 4.32 3 5 3 C5.23074219 3.53109375 5.46148438 4.0621875 5.69921875 4.609375 C7.8253941 9.21468762 9.67569955 12.11713304 14 15 C14.99 15.66 15.98 16.32 17 17 C17 17.66 17 18.32 17 19 C14.35409986 19.02684679 11.70846904 19.04676357 9.0625 19.0625 C8.30775391 19.07087891 7.55300781 19.07925781 6.77539062 19.08789062 C4.85005687 19.09652441 2.92464419 19.05224333 1 19 C0 18 0 18 -0.11352539 16.23413086 C-0.10828857 15.48526611 -0.10305176 14.73640137 -0.09765625 13.96484375 C-0.09443359 13.15595703 -0.09121094 12.34707031 -0.08789062 11.51367188 C-0.07951172 10.66353516 -0.07113281 9.81339844 -0.0625 8.9375 C-0.05798828 8.08349609 -0.05347656 7.22949219 -0.04882812 6.34960938 C-0.03700373 4.23304337 -0.01906769 2.11651315 0 0 Z " fill="#020203" transform="translate(8,36)"/>
<path d="M0 0 C2.81256281 -0.02684312 5.62487241 -0.04676188 8.4375 -0.0625 C9.23994141 -0.07087891 10.04238281 -0.07925781 10.86914062 -0.08789062 C12.91295221 -0.0965143 14.95683902 -0.0522815 17 0 C18 1 18 1 18.11352539 2.76586914 C18.10828857 3.51473389 18.10305176 4.26359863 18.09765625 5.03515625 C18.09443359 5.84404297 18.09121094 6.65292969 18.08789062 7.48632812 C18.07951172 8.33646484 18.07113281 9.18660156 18.0625 10.0625 C18.05798828 10.91650391 18.05347656 11.77050781 18.04882812 12.65039062 C18.03700373 14.76695663 18.01906769 16.88348685 18 19 C17.01 19 16.02 19 15 19 C14.70867188 18.33613281 14.41734375 17.67226563 14.1171875 16.98828125 C10.77889085 9.79729632 7.52973728 5.18565808 0 2 C0 1.34 0 0.68 0 0 Z " fill="#010102" transform="translate(45,6)"/>
<path d="M0 0 C2.35800504 2.28431738 3.88720897 4.0081024 4.265625 7.3359375 C4.251535 9.56920205 4.17460201 11.77382441 4 14 C2.68 14 1.36 14 0 14 C-0.33 12.68 -0.66 11.36 -1 10 C-1.66 10 -2.32 10 -3 10 C-3 11.65 -3 13.3 -3 15 C-1.68 15 -0.36 15 1 15 C1 16.65 1 18.3 1 20 C-0.98 20 -2.96 20 -5 20 C-5.33 20.66 -5.66 21.32 -6 22 C-7.37562854 20.71034824 -8.70766393 19.37310707 -10 18 C-10 17.34 -10 16.68 -10 16 C-9.34 15.67 -8.68 15.34 -8 15 C-7.64327759 12.48036578 -7.55624883 9.98666757 -7.44140625 7.4453125 C-6.93306055 4.62916731 -6.29799959 3.66464848 -4 2 C-1.8125 2.3125 -1.8125 2.3125 0 3 C0 2.01 0 1.02 0 0 Z " fill="#060408" transform="translate(32,22)"/>
<path d="M0 0 C-0.185625 0.928125 -0.37125 1.85625 -0.5625 2.8125 C-1.24123881 6.01343771 -1.24123881 6.01343771 0 9 C-0.99 9 -1.98 9 -3 9 C-3.0825 9.86625 -3.165 10.7325 -3.25 11.625 C-4.510805 17.29862251 -7.80968477 21.108993 -12 25 C-12.66 24.67 -13.32 24.34 -14 24 C-13.52949219 23.50371094 -13.05898438 23.00742187 -12.57421875 22.49609375 C-8.62393472 18.18594947 -5.95387647 14.51682767 -4 9 C-6.31 9 -8.62 9 -11 9 C-11 6.36 -11 3.72 -11 1 C-7.26513121 0.4254048 -3.78706732 0 0 0 Z " fill="#684492" transform="translate(63,26)"/>
<path d="M0 0 C-0.66 0 -1.32 0 -2 0 C-4.49582302 7.88154636 -3.35941222 13.18603264 -1 21 C-1 21.33 -1 21.66 -1 22 C-4.63 22 -8.26 22 -12 22 C-12 20.35 -12 18.7 -12 17 C-11.34 17 -10.68 17 -10 17 C-9.67 15.68 -9.34 14.36 -9 13 C-9 15.64 -9 18.28 -9 21 C-7.68 21 -6.36 21 -5 21 C-5.41954163 15.9323787 -6.05337752 11.72751174 -8 7 C-7.67 6.01 -7.34 5.02 -7 4 C-8.65 3.67 -10.3 3.34 -12 3 C-8.62803192 -0.37196808 -4.5120049 -1.50400163 0 0 Z " fill="#3C2F91" transform="translate(41,15)"/>
<path d="M0 0 C0.61875 0.78375 1.2375 1.5675 1.875 2.375 C3.89858661 4.96837647 3.89858661 4.96837647 6 7 C6.33 6.67 6.66 6.34 7 6 C8.99958364 5.95919217 11.00045254 5.95745644 13 6 C12.01 6.66 11.02 7.32 10 8 C16.83269705 8.33360365 21.90968327 8.23953018 28 5 C28.66 4.67 29.32 4.34 30 4 C28.80491691 7.71803628 26.53432914 9.44934176 23.12109375 11.23046875 C18.29005519 12.98316598 13.430076 13.0385291 8.6875 11.01171875 C5.14577945 8.90882217 1.97674562 6.70639803 0 3 C0 2.01 0 1.02 0 0 Z " fill="#583861" transform="translate(20,36)"/>
<path d="M0 0 C3.57535683 1.3692856 5.61220637 2.48711166 7.9375 5.5625 C8.288125 6.366875 8.63875 7.17125 9 8 C8.67 8.66 8.34 9.32 8 10 C7.34 9.01 6.68 8.02 6 7 C5.01 6.67 4.02 6.34 3 6 C3 6.66 3 7.32 3 8 C2.01 8.33 1.02 8.66 0 9 C-0.33 10.65 -0.66 12.3 -1 14 C-1.99 13.67 -2.98 13.34 -4 13 C-5.20568025 9.38295924 -4.97946735 7.94133527 -3.6875 4.25 C-2 1 -2 1 0 0 Z " fill="#1D182F" transform="translate(41,14)"/>
<path d="M0 0 C-2.42747528 3.64121292 -3.8779559 3.50916174 -7.96484375 4.4140625 C-11.94694779 5.56054159 -14.3011147 7.76863067 -16.3125 11.3125 C-17.16175301 14.63230722 -17.19686422 17.58768684 -17 21 C-16.67 21.33 -16.34 21.66 -16 22 C-15.67 19.69 -15.34 17.38 -15 15 C-14.67 15 -14.34 15 -14 15 C-14 17.97 -14 20.94 -14 24 C-15.32 24.33 -16.64 24.66 -18 25 C-20.25812322 20.48375356 -19.31187987 14.40345943 -18.25 9.625 C-14.61528152 1.99209118 -8.13428083 -0.48805685 0 0 Z " fill="#2C2149" transform="translate(39,13)"/>
<path d="M0 0 C1.875 0.125 1.875 0.125 4 1 C5.25 4.0625 5.25 4.0625 6 7 C2.3321148 8.96189209 -0.87248551 10.39301257 -5 11 C-5.66 10.01 -6.32 9.02 -7 8 C-6.01 8 -5.02 8 -4 8 C-4 6.35 -4 4.7 -4 3 C-2.68 2.67 -1.36 2.34 0 2 C0 1.34 0 0.68 0 0 Z " fill="#6D44BA" transform="translate(44,20)"/>
<path d="M0 0 C3.63 0.33 7.26 0.66 11 1 C11 3.31 11 5.62 11 8 C7.7 8 4.4 8 1 8 C1.33 6.68 1.66 5.36 2 4 C1.34 2.68 0.68 1.36 0 0 Z " fill="#764EAD" transform="translate(8,26)"/>
<path d="M0 0 C3.3 0 6.6 0 10 0 C10 0.99 10 1.98 10 3 C7.69 3 5.38 3 3 3 C3 3.66 3 4.32 3 5 C4.65 4.67 6.3 4.34 8 4 C7.67 4.99 7.34 5.98 7 7 C3.37 7 -0.26 7 -4 7 C-4.33 6.34 -4.66 5.68 -5 5 C-3.68 5 -2.36 5 -1 5 C-0.67 3.35 -0.34 1.7 0 0 Z " fill="#A75FC9" transform="translate(34,38)"/>
<path d="M0 0 C0.66 0.33 1.32 0.66 2 1 C1.71454928 4.42540866 1.17638186 5.8084997 -1.1875 8.375 C-4 10 -4 10 -7.3125 9.75 C-8.199375 9.5025 -9.08625 9.255 -10 9 C-10 8.34 -10 7.68 -10 7 C-7.69 7 -5.38 7 -3 7 C-3 6.01 -3 5.02 -3 4 C-3.53625 4.185625 -4.0725 4.37125 -4.625 4.5625 C-7.61990614 5.11419324 -10.03745829 4.60597444 -13 4 C-13.33 4.66 -13.66 5.32 -14 6 C-14 5.01 -14 4.02 -14 3 C-13.15695313 2.95101562 -12.31390625 2.90203125 -11.4453125 2.8515625 C-10.34960938 2.77679688 -9.25390625 2.70203125 -8.125 2.625 C-6.48917969 2.52058594 -6.48917969 2.52058594 -4.8203125 2.4140625 C-1.86953526 2.26746509 -1.86953526 2.26746509 0 0 Z " fill="#915AAF" transform="translate(47,34)"/>
<path d="M0 0 C2.35800504 2.28431738 3.88720897 4.0081024 4.265625 7.3359375 C4.251535 9.56920205 4.17460201 11.77382441 4 14 C2.68 14 1.36 14 0 14 C0 11.36 0 8.72 0 6 C-0.66 6 -1.32 6 -2 6 C-2 5.01 -2 4.02 -2 3 C-1.34 3 -0.68 3 0 3 C0 2.01 0 1.02 0 0 Z " fill="#201A2D" transform="translate(32,22)"/>
<path d="M0 0 C0.33 0 0.66 0 1 0 C1 2.64 1 5.28 1 8 C2.32 8 3.64 8 5 8 C5 5.69 5 3.38 5 1 C5.99 1.33 6.98 1.66 8 2 C8.33 4.31 8.66 6.62 9 9 C5.37 9 1.74 9 -2 9 C-2 7.35 -2 5.7 -2 4 C-1.34 4 -0.68 4 0 4 C0 2.68 0 1.36 0 0 Z " fill="#402E51" transform="translate(31,28)"/>
<path d="M0 0 C2.77644205 2.32862881 3.90344946 3.62122481 4.8125 7.1875 C4.874375 8.115625 4.93625 9.04375 5 10 C4 11 4 11 0.4375 11.0625 C-0.696875 11.041875 -1.83125 11.02125 -3 11 C-3.33 11.99 -3.66 12.98 -4 14 C-4.99 13.67 -5.98 13.34 -7 13 C-6.34 13 -5.68 13 -5 13 C-5.33 10.03 -5.66 7.06 -6 4 C-3 7 -3 7 -2 9 C-0.35 9.33 1.3 9.66 3 10 C2.01 6.7 1.02 3.4 0 0 Z " fill="#423564" transform="translate(55,16)"/>
<path d="M0 0 C0.99 0.33 1.98 0.66 3 1 C1.67105527 6.48189702 -2.46116062 9.9577509 -7 13 C-9.76171875 13.703125 -9.76171875 13.703125 -12 14 C-12 13.34 -12 12.68 -12 12 C-11.360625 11.87625 -10.72125 11.7525 -10.0625 11.625 C-9.381875 11.41875 -8.70125 11.2125 -8 11 C-7.67 10.34 -7.34 9.68 -7 9 C-6.34 9 -5.68 9 -5 9 C-4.67 8.01 -4.34 7.02 -4 6 C-3.34 5.67 -2.68 5.34 -2 5 C-1.27840576 3.35636866 -0.60648579 1.68949614 0 0 Z " fill="#1D191F" transform="translate(54,39)"/>
<path d="M0 0 C1.32 0.66 2.64 1.32 4 2 C3.01 2.495 3.01 2.495 2 3 C1.31867549 4.66072849 0.65257873 6.327767 0 8 C-0.66 8.66 -1.32 9.32 -2 10 C-2.99 9.01 -3.98 8.02 -5 7 C-4.67 6.01 -4.34 5.02 -4 4 C-3.34 4 -2.68 4 -2 4 C-1.34 2.68 -0.68 1.36 0 0 Z " fill="#17161B" transform="translate(21,15)"/>
<path d="M0 0 C3.57535683 1.3692856 5.61220637 2.48711166 7.9375 5.5625 C8.288125 6.366875 8.63875 7.17125 9 8 C8.67 8.66 8.34 9.32 8 10 C7.34 9.01 6.68 8.02 6 7 C5.01 6.67 4.02 6.34 3 6 C3 6.66 3 7.32 3 8 C2.01 7.67 1.02 7.34 0 7 C0.33 5.35 0.66 3.7 1 2 C0.01 2.33 -0.98 2.66 -2 3 C-2 2.34 -2 1.68 -2 1 C-1.34 0.67 -0.68 0.34 0 0 Z " fill="#251F47" transform="translate(41,14)"/>
<path d="M0 0 C1.21244635 6.30472103 1.21244635 6.30472103 0.3125 9.25 C-1.21926281 11.29235042 -2.88329973 12.58886649 -5 14 C-5.66 13.67 -6.32 13.34 -7 13 C-6.319375 12.319375 -5.63875 11.63875 -4.9375 10.9375 C-2.6110158 8.05366249 -2.6110158 8.05366249 -3.25 4.1875 C-3.4975 3.135625 -3.745 2.08375 -4 1 C-1 0 -1 0 0 0 Z " fill="#291D32" transform="translate(52,29)"/>
<path d="M0 0 C1.32 0 2.64 0 4 0 C4 0.99 4 1.98 4 3 C6.31 3.33 8.62 3.66 11 4 C11 4.33 11 4.66 11 5 C10.11248047 5.09087891 10.11248047 5.09087891 9.20703125 5.18359375 C5.09021792 5.62012371 1.04455467 6.08671346 -3 7 C-1.68 5.35 -0.36 3.7 1 2 C0.67 1.34 0.34 0.68 0 0 Z " fill="#030305" transform="translate(30,8)"/>
<path d="M0 0 C0.7734375 0.61875 0.7734375 0.61875 1.5625 1.25 C-0.84671705 3.65921705 -3.38084509 4.78812156 -6.4375 6.25 C-7.4275 5.26 -8.4175 4.27 -9.4375 3.25 C-3.0375 -0.93461538 -3.0375 -0.93461538 0 0 Z " fill="#18171D" transform="translate(30.4375,8.75)"/>
<path d="M0 0 C4.0042343 3.49087093 5.62671065 5.64951939 6 11 C4.35 11 2.7 11 1 11 C1.20625 10.29875 1.4125 9.5975 1.625 8.875 C2.07850357 5.39813928 1.27540277 3.22601877 0 0 Z " fill="#060508" transform="translate(52,15)"/>
<path d="M0 0 C0.66 0.33 1.32 0.66 2 1 C1.52949219 1.49628906 1.05898438 1.99257812 0.57421875 2.50390625 C-3.37606528 6.81405053 -6.04612353 10.48317233 -8 16 C-8.66 15.67 -9.32 15.34 -10 15 C-7.61082502 8.67571328 -5.07363859 4.49708875 0 0 Z " fill="#3C2D6F" transform="translate(21,10)"/>
<path d="M0 0 C1.32 0.33 2.64 0.66 4 1 C4.33 2.32 4.66 3.64 5 5 C3.88625 4.95875 2.7725 4.9175 1.625 4.875 C-2.04366025 4.58878141 -2.04366025 4.58878141 -4 7 C-3.67 5.35 -3.34 3.7 -3 2 C-2.01 2 -1.02 2 0 2 C0 1.34 0 0.68 0 0 Z " fill="#5338A6" transform="translate(44,20)"/>
<path d="M0 0 C0.99 0 1.98 0 3 0 C2.88590407 1.45922693 2.75834456 2.91740598 2.625 4.375 C2.55539063 5.18710937 2.48578125 5.99921875 2.4140625 6.8359375 C2 9 2 9 0 11 C-1.16461426 7.50615721 -1.13568319 4.66344611 -1 1 C-0.67 0.67 -0.34 0.34 0 0 Z " fill="#7448B1" transform="translate(22,26)"/>
<path d="M0 0 C0.33 0.66 0.66 1.32 1 2 C4.465 1.505 4.465 1.505 8 1 C7.67 1.99 7.34 2.98 7 4 C3.37 4 -0.26 4 -4 4 C-4.33 3.34 -4.66 2.68 -5 2 C-3.35 1.34 -1.7 0.68 0 0 Z " fill="#B565C9" transform="translate(34,41)"/>
<path d="M0 0 C3.4375 1.3125 3.4375 1.3125 7 3 C7.33 3.99 7.66 4.98 8 6 C5 7 5 7 2.875 6.375 C1 5 1 5 0.25 2.375 C0.1675 1.59125 0.085 0.8075 0 0 Z " fill="#19181C" transform="translate(42,8)"/>
<path d="M0 0 C0.66 0 1.32 0 2 0 C3.625 2.75 3.625 2.75 5 6 C4.1875 8.375 4.1875 8.375 3 10 C0.3144406 7.3144406 -0.06049974 4.62378672 -1 1 C-0.67 0.67 -0.34 0.34 0 0 Z " fill="#19191A" transform="translate(50,15)"/>
<path d="M0 0 C5.75 -0.125 5.75 -0.125 8 1 C8 1.99 8 2.98 8 4 C5.69 4 3.38 4 1 4 C0.67 2.68 0.34 1.36 0 0 Z " fill="#19181F" transform="translate(33,7)"/>
<path d="M0 0 C0.99 0 1.98 0 3 0 C3.99 1.98 4.98 3.96 6 6 C5.34 6.66 4.68 7.32 4 8 C0 2.25 0 2.25 0 0 Z " fill="#241E27" transform="translate(14,39)"/>
<path d="M0 0 C0.33 0 0.66 0 1 0 C1.66 3.3 2.32 6.6 3 10 C2.01 10 1.02 10 0 10 C-2.21538462 4.58461538 -2.21538462 4.58461538 -1.125 1.625 C-0.75375 1.08875 -0.3825 0.5525 0 0 Z " fill="#4C3590" transform="translate(35,18)"/>
<path d="M0 0 C1.32 0.33 2.64 0.66 4 1 C4 1.99 4 2.98 4 4 C3.01 4.66 2.02 5.32 1 6 C0 5 0 5 -0.0625 2.4375 C-0.041875 1.633125 -0.02125 0.82875 0 0 Z " fill="#8350B7" transform="translate(39,31)"/>
<path d="M0 0 C0.33 0.99 0.66 1.98 1 3 C0.401875 3.268125 -0.19625 3.53625 -0.8125 3.8125 C-2.97224808 4.98493467 -4.35790256 6.19369282 -6 8 C-5.40138258 5.64828869 -4.73075648 3.3140622 -4 1 C-2 0 -2 0 0 0 Z " fill="#07060F" transform="translate(42,16)"/>
<path d="M0 0 C0.33 0 0.66 0 1 0 C1 2.97 1 5.94 1 9 C0.01 9 -0.98 9 -2 9 C-2 7.35 -2 5.7 -2 4 C-1.34 4 -0.68 4 0 4 C0 2.68 0 1.36 0 0 Z " fill="#5B4078" transform="translate(31,28)"/>
<path d="M0 0 C1.65 0 3.3 0 5 0 C4.67 1.32 4.34 2.64 4 4 C2.68 4 1.36 4 0 4 C0 2.68 0 1.36 0 0 Z " fill="#54397A" transform="translate(13,29)"/>
<path d="M0 0 C0.99 0 1.98 0 3 0 C3 1.98 3 3.96 3 6 C2.01 6 1.02 6 0 6 C0 4.02 0 2.04 0 0 Z " fill="#010001" transform="translate(33,30)"/>
<path d="M0 0 C2.31 0 4.62 0 7 0 C6.01 1.485 6.01 1.485 5 3 C1.875 3.1875 1.875 3.1875 -1 3 C-0.67 2.01 -0.34 1.02 0 0 Z " fill="#1E1A40" transform="translate(32,13)"/>
</svg>
